<svg width="32" height="32" viewBox="0 0 32 32" fill="none" xmlns="http://www.w3.org/2000/svg">
<path d="M29.03 24.9377C28.5416 26.0557 27.9636 27.0848 27.2938 28.031C26.3809 29.3208 25.6334 30.2136 25.0574 30.7094C24.1644 31.5232 23.2076 31.94 22.1831 31.9637C21.4476 31.9637 20.5606 31.7563 19.5281 31.3355C18.4922 30.9168 17.5402 30.7094 16.6698 30.7094C15.7568 30.7094 14.7778 30.9168 13.7305 31.3355C12.6816 31.7563 11.8367 31.9755 11.1907 31.9973C10.2082 32.0387 9.22893 31.6101 8.25143 30.7094C7.62754 30.1702 6.84718 29.2457 5.91234 27.9361C4.90934 26.5377 4.08473 24.916 3.43871 23.0672C2.74685 21.0702 2.40002 19.1364 2.40002 17.2643C2.40002 15.1197 2.86764 13.2701 3.80427 11.7201C4.54038 10.4751 5.51967 9.49305 6.74533 8.77208C7.97098 8.05112 9.2953 7.68372 10.7215 7.66022C11.5018 7.66022 12.5252 7.89942 13.7969 8.36953C15.065 8.84122 15.8792 9.08042 16.2362 9.08042C16.5031 9.08042 17.4077 8.80072 18.9411 8.24311C20.3912 7.72599 21.615 7.51188 22.6176 7.59622C25.3345 7.8135 27.3755 8.8748 28.733 10.7868C26.3032 12.2458 25.1012 14.2891 25.1252 16.9105C25.1471 18.9523 25.8946 20.6514 27.3636 22.0005C28.0293 22.6267 28.7728 23.1106 29.6 23.4543C29.4206 23.9698 29.2313 24.4637 29.03 24.9377ZM22.799 0.640182C22.799 2.24055 22.209 3.7348 21.033 5.11787C19.6138 6.76207 17.8972 7.71216 16.0357 7.56224C16.012 7.37025 15.9982 7.16818 15.9982 6.95584C15.9982 5.41949 16.6731 3.7753 17.8717 2.43094C18.4701 1.75027 19.2311 1.1843 20.154 0.73282C21.0749 0.288073 21.9459 0.0421187 22.7651 0C22.7891 0.213944 22.799 0.427901 22.799 0.640161V0.640182Z" fill="black"/>
</svg>
