<svg width="32" height="12" viewBox="0 0 32 12" fill="none" xmlns="http://www.w3.org/2000/svg">
<path d="M4.38605 0C1.86001 0 0 1.67984 0 4.01875V4.03483C0 6.21299 1.59197 7.8205 3.84998 7.8205C5.43383 7.8205 6.60345 7.01675 7.06642 5.95579H7.11515C7.11515 6.08439 7.10703 6.20496 7.09891 6.32552C7.01769 8.51976 6.22982 10.3041 4.34544 10.3041C3.29766 10.3041 2.5829 9.78969 2.26613 8.99397L2.24176 8.92163H0.162446L0.178691 9.01005C0.544196 10.7622 2.16866 12 4.33732 12C7.32633 12 9.12137 9.70931 9.12137 5.87542V5.85934C9.12137 1.79236 6.96895 0 4.38605 0ZM4.38605 6.22103C3.05399 6.22103 2.06307 5.28064 2.06307 3.96249V3.94642C2.06307 2.69257 3.11085 1.69591 4.41042 1.69591C5.72624 1.69591 6.74965 2.7006 6.74965 3.9866V3.99464C6.74965 5.28868 5.72624 6.22103 4.38605 6.22103Z" fill="#232323"/>
<path d="M12.4021 4.21165C13.06 4.21165 13.5718 3.69725 13.5718 3.04622C13.5718 2.39518 13.06 1.88881 12.4021 1.88881C11.7442 1.88881 11.2244 2.39518 11.2244 3.04622C11.2244 3.69725 11.7442 4.21165 12.4021 4.21165ZM12.4021 10.1112C13.06 10.1112 13.5718 9.59678 13.5718 8.94575C13.5718 8.29471 13.06 7.78835 12.4021 7.78835C11.7442 7.78835 11.2244 8.29471 11.2244 8.94575C11.2244 9.59678 11.7442 10.1112 12.4021 10.1112Z" fill="#232323"/>
<path d="M21.4416 11.7991H23.4397V9.57267H25.0317V7.86872H23.4397V0.200938H20.4588L15.5936 7.80442V9.57267H21.4416V11.7991ZM17.4779 7.91695V7.86068L21.4254 1.76825H21.4741V7.91695H17.4779Z" fill="#232323"/>
<path d="M29.9451 11.7991H32V0.200938H29.9288L26.8667 2.33088V4.23577L29.8963 2.17816H29.9451V11.7991Z" fill="#232323"/>
</svg>
