<svg width="32" height="32" viewBox="0 0 32 32" fill="none" xmlns="http://www.w3.org/2000/svg">
<g clip-path="url(#clip0_111_5364)">
<path fill-rule="evenodd" clip-rule="evenodd" d="M31.36 16.3635C31.36 15.229 31.2582 14.1381 31.0691 13.0908H16V19.2799H24.6109C24.24 21.2799 23.1127 22.9745 21.4182 24.109V28.1235H26.5891C29.6145 25.3381 31.36 21.2363 31.36 16.3635Z" fill="#4285F4"/>
<path fill-rule="evenodd" clip-rule="evenodd" d="M16 32C20.32 32 23.9418 30.5673 26.5891 28.1237L21.4181 24.1091C19.9854 25.0691 18.1527 25.6364 16 25.6364C11.8327 25.6364 8.30542 22.8219 7.04724 19.04H1.70178V23.1855C4.33451 28.4146 9.74542 32 16 32Z" fill="#34A853"/>
<path fill-rule="evenodd" clip-rule="evenodd" d="M7.04727 19.0399C6.72727 18.0799 6.54545 17.0545 6.54545 15.9999C6.54545 14.9454 6.72727 13.9199 7.04727 12.9599V8.81445H1.70182C0.618182 10.9745 0 13.4181 0 15.9999C0 18.5817 0.618182 21.0254 1.70182 23.1854L7.04727 19.0399Z" fill="#FBBC05"/>
<path fill-rule="evenodd" clip-rule="evenodd" d="M16 6.36364C18.3491 6.36364 20.4581 7.17091 22.1163 8.75636L26.7054 4.16727C23.9345 1.58545 20.3127 0 16 0C9.74542 0 4.33451 3.58545 1.70178 8.81455L7.04724 12.96C8.30542 9.17818 11.8327 6.36364 16 6.36364Z" fill="#EA4335"/>
</g>
<defs>
<clipPath id="clip0_111_5364">
<rect width="32" height="32" rx="6" fill="white"/>
</clipPath>
</defs>
</svg>
